<?xml version="1.0" standalone="no"?>
<!DOCTYPE svg PUBLIC "-//W3C//DTD SVG 20010904//EN"
 "http://www.w3.org/TR/2001/REC-SVG-20010904/DTD/svg10.dtd">
<svg version="1.0" xmlns="http://www.w3.org/2000/svg"
 width="869.000000pt" height="854.000000pt" viewBox="0 0 869.000000 854.000000"
 preserveAspectRatio="xMidYMid meet">

<g transform="translate(0.000000,854.000000) scale(0.100000,-0.100000)"
fill="#000000" stroke="none">
<path d="M2295 2994 c-84 -13 -188 -67 -240 -127 -84 -96 -115 -185 -115 -336
0 -119 18 -203 61 -276 79 -138 195 -199 374 -198 147 0 221 28 311 118 64 64
99 134 119 238 19 100 19 129 -1 225 -36 174 -128 287 -274 336 -48 15 -184
27 -235 20z m155 -127 c142 -38 210 -148 210 -342 0 -95 -7 -132 -37 -203 -20
-45 -84 -108 -130 -128 -50 -21 -185 -21 -235 0 -53 22 -106 80 -136 145 -23
51 -25 68 -26 186 0 119 2 135 26 185 61 131 192 193 328 157z"/>
<path d="M5320 2990 c-147 -25 -270 -112 -321 -227 -12 -26 -27 -59 -33 -72
-14 -31 -14 -310 0 -342 65 -147 111 -200 217 -248 72 -34 102 -41 218 -48
144 -8 295 37 326 97 10 18 13 73 11 201 -4 235 9 220 -197 217 l-156 -3 -13
-27 c-11 -23 -11 -33 0 -55 13 -27 16 -28 101 -30 48 0 94 -4 102 -7 12 -4 15
-29 15 -120 0 -147 -1 -148 -158 -148 -59 -1 -117 4 -127 9 -11 6 -32 16 -48
24 -44 20 -98 80 -126 139 -23 49 -26 67 -26 170 0 105 2 120 28 175 33 70 57
98 113 131 45 27 138 54 184 54 46 0 132 -22 178 -46 48 -26 69 -22 83 13 20
52 -20 96 -114 127 -53 18 -197 27 -257 16z"/>
<path d="M6230 2975 c-20 -7 -37 -21 -39 -31 -2 -11 -7 -23 -11 -29 -4 -5 -19
-44 -34 -85 -15 -41 -31 -84 -36 -95 -22 -54 -80 -213 -86 -238 -3 -15 -10
-30 -15 -33 -5 -3 -9 -14 -9 -25 0 -10 -4 -27 -9 -37 -12 -24 -71 -199 -82
-244 -17 -72 24 -110 100 -93 25 5 32 14 46 58 9 29 20 60 26 69 5 10 9 25 9
33 0 9 7 29 15 45 l16 30 183 0 184 0 27 -82 c39 -122 47 -136 78 -149 37 -16
100 -1 105 24 2 10 -4 43 -14 75 -30 99 -135 416 -144 437 -5 11 -21 56 -35
100 -15 44 -30 89 -34 100 -60 151 -65 160 -109 173 -48 15 -86 14 -132 -3z
m94 -147 c7 -26 78 -244 85 -263 27 -69 39 -117 35 -130 -5 -12 -32 -15 -145
-15 -138 0 -139 0 -139 23 0 19 55 195 79 252 4 11 14 38 21 60 24 74 29 85
45 85 9 0 17 -6 19 -12z"/>
<path d="M3094 2966 c-38 -17 -38 -19 -54 -251 -6 -88 -15 -210 -20 -271 -16
-177 -13 -349 5 -364 15 -13 101 -17 112 -7 7 8 21 197 33 467 8 174 14 238
24 249 12 11 15 10 21 -10 19 -70 183 -455 202 -475 15 -17 33 -24 57 -24 59
0 83 17 107 79 12 31 28 72 36 91 8 19 19 44 23 55 5 11 16 38 25 60 10 22 20
49 25 60 4 11 12 31 18 45 6 14 18 46 29 72 31 82 36 70 52 -127 6 -71 11
-171 11 -222 0 -128 19 -295 35 -312 16 -16 102 -18 117 -3 6 6 5 73 -2 188
-29 432 -44 593 -66 675 -9 32 -72 47 -144 33 -33 -7 -30 -3 -99 -156 -11 -26
-21 -51 -21 -54 0 -3 -6 -20 -14 -37 -7 -18 -26 -63 -41 -102 -58 -150 -74
-185 -84 -185 -7 0 -24 34 -51 105 -4 11 -15 36 -24 57 -9 20 -16 39 -16 42 0
3 -9 28 -21 54 -12 26 -25 56 -29 67 -5 11 -20 46 -34 77 -14 31 -26 60 -26
65 -1 16 -39 53 -65 63 -36 14 -84 12 -121 -4z"/>
<path d="M4216 2946 c-14 -22 -16 -73 -16 -424 0 -389 1 -400 21 -426 l20 -26
258 0 c295 0 294 0 289 70 l-3 45 -215 5 -215 5 0 140 0 140 179 3 c112 1 185
7 193 13 19 16 17 95 -3 103 -9 3 -96 6 -195 6 l-180 0 3 128 3 127 206 3
c204 2 206 3 218 26 7 12 11 36 9 52 l-3 29 -276 3 -276 2 -17 -24z"/>
</g>
</svg>
