<?xml version="1.0" standalone="no"?>
<!DOCTYPE svg PUBLIC "-//W3C//DTD SVG 20010904//EN"
 "http://www.w3.org/TR/2001/REC-SVG-20010904/DTD/svg10.dtd">
<svg version="1.0" xmlns="http://www.w3.org/2000/svg"
 width="360.000000pt" height="360.000000pt" viewBox="0 0 360.000000 360.000000"
 preserveAspectRatio="xMidYMid meet">

<g transform="translate(0.000000,360.000000) scale(0.100000,-0.100000)"
fill="#000000" stroke="none">
<path d="M1605 3360 c-11 -5 -14 -9 -7 -9 24 -2 11 -16 -49 -56 -33 -22 -73
-56 -88 -75 -27 -34 -64 -97 -59 -102 1 -2 -10 -23 -25 -48 -37 -63 -57 -125
-57 -174 0 -23 -9 -55 -20 -74 -11 -18 -20 -48 -20 -68 0 -19 -5 -44 -10 -55
-7 -12 -7 -19 -1 -19 5 0 12 8 16 19 4 13 13 17 32 15 14 -1 44 4 65 13 44 18
50 14 68 -40 15 -47 23 -44 10 4 -25 87 6 139 83 139 61 0 86 -27 69 -73 -14
-37 -25 -157 -14 -157 4 0 12 10 17 22 16 35 103 76 182 88 81 11 193 3 193
-14 0 -6 10 -16 22 -21 13 -6 28 -21 35 -35 16 -31 17 -160 2 -160 -6 0 -26
12 -46 27 -51 39 -144 45 -192 11 -19 -13 -44 -38 -54 -57 -19 -32 -19 -35 -3
-87 9 -30 14 -60 10 -67 -33 -59 -127 -97 -188 -77 -60 19 -124 104 -153 200
l-13 45 6 -39 6 -40 -59 49 c-145 121 -160 145 -126 195 9 14 10 20 3 13 -10
-10 -16 -6 -29 20 -13 26 -23 33 -52 35 -30 2 -41 -2 -57 -23 -17 -21 -19 -32
-11 -58 16 -57 12 -67 -24 -67 -19 0 -59 5 -90 11 -81 17 -104 8 -118 -44 -17
-62 -17 -230 0 -251 8 -9 33 -21 57 -27 51 -13 63 -25 70 -71 4 -25 0 -40 -17
-62 -20 -26 -27 -28 -71 -24 -33 4 -51 1 -59 -8 -17 -21 -7 -185 13 -216 14
-21 14 -27 1 -53 -12 -23 -14 -48 -9 -118 8 -102 1 -119 -45 -110 -43 8 -72
-3 -92 -37 -24 -40 -24 -85 -1 -111 17 -18 26 -20 81 -14 79 8 84 -1 53 -100
-28 -90 -23 -140 17 -172 48 -39 154 -41 186 -5 8 10 17 36 20 60 6 52 31 92
56 92 25 0 31 -19 31 -96 0 -89 18 -107 103 -102 l61 3 8 -44 c10 -60 18 -64
18 -8 0 43 2 47 24 47 13 0 43 7 66 15 57 20 84 12 76 -23 -18 -77 -19 -113
-1 -132 27 -30 62 -25 102 15 34 34 35 37 32 98 -4 70 -1 73 76 44 29 -11 39
-21 37 -34 -2 -10 -6 -55 -9 -101 -4 -65 -2 -92 12 -128 l18 -46 51 5 c82 8
106 -12 106 -89 0 -45 -23 -59 -93 -59 l-60 0 -14 -40 c-20 -53 -22 -147 -4
-169 22 -26 0 -39 -81 -47 l-73 -7 72 2 c52 1 77 6 91 19 10 9 26 17 36 17 9
0 44 9 78 21 33 11 72 19 87 17 24 -3 26 -7 26 -48 l0 -45 47 1 c58 0 81 18
73 54 -8 39 14 44 79 18 98 -37 127 -11 134 119 6 112 -6 131 -85 135 -58 3
-58 3 -61 37 -2 18 2 47 9 63 10 25 17 29 44 26 18 -1 40 3 48 10 18 15 34 75
43 166 8 82 24 102 87 111 81 12 82 11 78 -81 -3 -76 -1 -83 20 -98 31 -21 51
-20 83 5 24 19 26 26 24 87 l-3 67 45 6 45 6 -41 1 c-55 3 -66 -12 -62 -89 3
-59 1 -64 -24 -78 -22 -12 -31 -13 -53 -3 -28 13 -28 13 -21 91 8 100 3 106
-94 96 -38 -4 -70 -5 -71 -4 -13 73 -23 183 -18 208 10 47 23 56 86 56 53 0
57 2 68 30 15 38 2 90 -27 106 -11 6 -41 12 -67 13 -25 0 -46 6 -45 11 0 6 4
52 8 103 l9 93 26 -6 c18 -4 22 -3 12 4 -11 7 -7 17 18 49 24 30 36 59 48 121
26 132 0 181 -96 181 -53 0 -91 31 -91 75 0 42 24 58 83 54 62 -3 65 -2 82 31
25 48 19 104 -13 142 -16 18 -34 48 -40 67 -17 48 -15 132 4 176 12 30 19 36
37 32 12 -3 34 -9 49 -12 40 -10 88 39 88 89 0 54 -28 76 -94 76 -51 0 -55 2
-60 28 -4 15 0 63 9 107 22 119 20 177 -8 203 -46 43 -111 25 -135 -38 -9 -24
-10 -24 -18 -5 -22 60 -115 143 -188 168 -17 5 -34 14 -37 19 -9 14 -105 21
-138 10 -27 -10 -36 -8 -68 14 -22 14 -49 24 -67 23 -17 -1 -53 1 -81 5 -27 3
-59 1 -70 -4z m389 -864 c42 -31 62 -67 85 -149 l17 -58 22 31 c22 29 18 42
-6 18 -14 -14 -14 -15 -36 52 -9 30 -20 60 -22 67 -3 6 10 16 30 23 71 23 127
-43 111 -133 -4 -23 6 -64 35 -147 108 -304 121 -374 100 -564 -16 -146 -32
-171 -120 -186 -51 -8 -58 -7 -95 19 -22 16 -59 51 -82 80 l-42 51 23 61 c12
33 27 60 32 60 5 0 16 -24 25 -53 9 -30 21 -63 28 -73 12 -20 12 -20 6 0 -31
97 -37 155 -31 305 4 85 9 172 13 195 3 22 3 37 -1 34 -4 -4 -15 -85 -26 -180
-24 -225 -58 -329 -137 -427 -61 -75 -67 -76 -164 -43 -47 15 -100 36 -119 46
-60 29 -160 100 -156 110 4 16 164 142 203 160 42 20 58 10 74 -47 14 -53 21
-44 8 11 -12 55 -9 63 63 194 33 59 68 133 79 164 19 56 25 138 11 160 -6 10
-122 55 -122 47 0 -2 12 -10 28 -19 l27 -15 -25 2 c-48 5 -88 126 -59 179 34
64 154 78 223 25z m-529 -195 c52 -65 92 -91 144 -91 46 0 121 28 152 56 24
22 91 15 95 -10 5 -32 13 -46 29 -46 18 0 20 -46 4 -103 -8 -31 -13 -36 -24
-27 -25 21 -38 1 -31 -48 5 -39 2 -51 -29 -101 -19 -31 -43 -65 -53 -74 -16
-15 -90 -57 -99 -57 -1 0 1 31 4 69 5 61 3 71 -16 90 -31 31 -84 28 -111 -6
-20 -25 -21 -36 -15 -95 6 -67 6 -68 -19 -68 -13 0 -48 9 -78 21 l-54 20 18
117 c29 194 24 217 -45 205 -20 -3 -47 -3 -61 1 -22 5 -26 12 -26 42 0 19 7
50 14 69 15 35 16 35 76 35 53 0 63 3 67 20 8 29 24 24 58 -19z m155 -341 c10
-5 21 -23 25 -40 9 -41 -15 -142 -37 -158 -10 -8 -44 -36 -76 -64 -31 -27 -70
-57 -87 -66 -26 -14 -28 -16 -10 -20 11 -2 71 -31 133 -64 84 -45 112 -64 112
-79 0 -28 26 -75 45 -83 9 -3 29 -6 44 -6 41 0 51 -17 51 -90 0 -74 -24 -158
-48 -168 -8 -3 -37 2 -63 11 -50 18 -85 22 -92 9 -3 -4 0 -31 5 -59 12 -61 -1
-92 -51 -118 -59 -30 -85 14 -58 98 25 78 -2 94 -104 61 -45 -15 -51 -15 -74
0 -36 24 -49 83 -35 166 6 37 20 82 31 100 19 31 23 32 67 27 80 -9 126 34
103 96 -14 36 -49 57 -96 57 -62 0 -85 21 -85 79 0 65 17 153 32 162 7 4 28 0
47 -9 20 -9 59 -16 86 -16 49 -1 50 -1 48 29 -1 17 -5 47 -9 68 -10 62 43 105
96 77z m403 -442 c12 -6 43 -28 70 -49 47 -38 50 -38 110 -33 56 6 66 11 107
50 39 38 52 44 87 44 47 0 73 -25 73 -72 0 -41 -26 -61 -71 -53 -20 4 -46 2
-57 -4 -31 -17 -43 -84 -30 -168 10 -65 10 -75 -6 -92 -20 -22 -96 -51 -133
-51 -32 0 -36 18 -18 69 20 56 19 67 -5 91 -31 31 -85 27 -122 -10 -28 -28
-30 -35 -26 -81 5 -47 3 -51 -21 -61 -25 -9 -165 2 -178 15 -3 3 3 30 13 59
23 69 25 181 3 203 -8 8 -32 17 -54 19 -41 3 -65 26 -65 63 0 28 2 28 75 3 32
-11 64 -20 71 -20 7 0 36 20 64 45 52 46 76 53 113 33z"/>
<path d="M1830 2475 c-7 -8 -20 -15 -30 -15 -21 0 -31 -40 -20 -79 7 -23 8
-21 9 16 1 32 6 43 20 48 22 7 47 33 39 40 -3 3 -11 -1 -18 -10z"/>
<path d="M2092 2170 c0 -19 2 -27 5 -17 2 9 2 25 0 35 -3 9 -5 1 -5 -18z"/>
<path d="M1495 2770 c-9 -17 -14 -37 -11 -43 2 -7 5 -5 5 4 2 29 47 62 75 55
15 -3 26 -14 26 -22 0 -12 -6 -15 -26 -10 -27 7 -64 -15 -64 -38 0 -6 5 -3 11
7 5 9 21 17 35 17 21 0 24 -4 19 -27 l-5 -28 11 28 c6 15 15 27 20 27 6 0 9
12 7 28 -3 24 -8 27 -45 30 -38 3 -43 0 -58 -28z"/>
<path d="M1559 2673 c-11 -3 -15 -11 -12 -27 7 -33 -30 -45 -58 -20 -18 16
-19 16 -13 1 7 -18 47 -33 63 -23 10 6 43 68 39 71 -2 1 -10 0 -19 -2z"/>
<path d="M1597 2583 c-4 -3 -7 -11 -7 -17 0 -6 5 -5 12 2 6 6 9 14 7 17 -3 3
-9 2 -12 -2z"/>
<path d="M2682 1795 c-2 -67 8 -86 48 -84 23 1 23 2 -5 8 -29 6 -30 9 -36 71
l-6 65 -1 -60z"/>
<path d="M2561 1812 c-1 -13 4 -32 10 -43 8 -15 7 -25 -3 -37 -12 -15 -11 -16
5 -3 11 9 15 20 11 30 -3 9 -10 30 -14 46 -7 25 -8 26 -9 7z"/>
<path d="M2458 1723 c7 -3 16 -2 19 1 4 3 -2 6 -13 5 -11 0 -14 -3 -6 -6z"/>
<path d="M2768 1723 c7 -3 16 -2 19 1 4 3 -2 6 -13 5 -11 0 -14 -3 -6 -6z"/>
<path d="M2850 1720 c9 -6 17 -32 21 -72 l6 -63 1 53 c2 56 -10 92 -31 92 -7
0 -6 -4 3 -10z"/>
<path d="M2851 1557 c-13 -21 -12 -21 5 -5 10 10 16 20 13 22 -3 3 -11 -5 -18
-17z"/>
<path d="M2735 1469 c-4 -6 -5 -12 -2 -15 2 -3 7 2 10 11 7 17 1 20 -8 4z"/>
<path d="M2721 1420 c-1 -26 15 -50 33 -50 5 0 3 6 -6 13 -9 6 -19 23 -21 37
l-4 25 -2 -25z"/>
<path d="M2790 1360 c8 -5 20 -10 25 -10 6 0 3 5 -5 10 -8 5 -19 10 -25 10 -5
0 -3 -5 5 -10z"/>
<path d="M2831 1304 c0 -11 3 -14 6 -6 3 7 2 16 -1 19 -3 4 -6 -2 -5 -13z"/>
<path d="M2842 1250 c0 -19 2 -27 5 -17 2 9 2 25 0 35 -3 9 -5 1 -5 -18z"/>
<path d="M2728 1103 c7 -3 16 -2 19 1 4 3 -2 6 -13 5 -11 0 -14 -3 -6 -6z"/>
<path d="M1322 928 c-3 -51 -18 -86 -39 -91 -15 -3 -14 -4 2 -3 26 1 47 47 42
94 l-4 37 -1 -37z"/>
<path d="M1200 820 c-11 -11 -20 -26 -19 -32 0 -7 5 -3 11 8 5 12 20 27 32 32
11 6 15 11 9 11 -7 1 -22 -8 -33 -19z"/>
<path d="M1171 754 c0 -11 3 -14 6 -6 3 7 2 16 -1 19 -3 4 -6 -2 -5 -13z"/>
<path d="M1218 693 c7 -3 16 -2 19 1 4 3 -2 6 -13 5 -11 0 -14 -3 -6 -6z"/>
<path d="M1330 656 c7 -19 7 -40 1 -64 -8 -25 -7 -32 1 -24 15 15 15 89 0 104
-11 11 -11 8 -2 -16z"/>
<path d="M1540 556 c19 -11 27 -25 31 -58 l6 -43 1 48 c2 42 -1 49 -24 57 -36
14 -43 12 -14 -4z"/>
<path d="M1476 544 c-9 -8 -16 -21 -16 -27 0 -7 5 -4 11 5 5 10 17 22 27 27 9
6 12 11 5 11 -6 0 -19 -7 -27 -16z"/>
<path d="M1297 521 c-9 -16 -17 -38 -17 -48 0 -19 38 -63 54 -63 5 0 -3 9 -18
21 -30 23 -33 54 -10 87 9 13 14 25 12 27 -2 3 -12 -9 -21 -24z"/>
</g>
</svg>
